<?xml version="1.0" standalone="no"?>
<!DOCTYPE svg PUBLIC "-//W3C//DTD SVG 20010904//EN"
 "http://www.w3.org/TR/2001/REC-SVG-20010904/DTD/svg10.dtd">
<svg version="1.0" xmlns="http://www.w3.org/2000/svg"
 width="320.000000pt" height="320.000000pt" viewBox="0 0 320.000000 320.000000"
 preserveAspectRatio="xMidYMid meet">
<metadata>
Created by potrace 1.11, written by Peter Selinger 2001-2013
</metadata>
<g transform="translate(0.000000,320.000000) scale(0.100000,-0.100000)"
fill="#000000" stroke="none">
<path d="M2003 2823 c-25 -5 -33 -47 -10 -56 6 -3 -30 -6 -82 -6 l-93 -1 -101
-96 c-152 -144 -395 -299 -612 -389 -38 -16 -74 -32 -79 -36 -5 -4 -14 -31
-21 -61 l-13 -53 5 83 c6 79 2 91 -23 74 -10 -6 -148 -621 -142 -628 2 -1 37
6 78 17 41 10 84 19 95 19 12 0 16 3 9 8 -6 4 -13 17 -16 29 -5 20 -1 24 35
34 96 25 228 72 322 113 55 24 101 42 103 41 1 -1 -5 -33 -13 -71 -62 -284
-245 -1166 -245 -1178 0 -14 31 -16 269 -16 l269 0 7 38 c8 47 225 1056 235
1097 7 28 5 -74 -4 -235 -3 -36 -3 -60 0 -55 2 6 37 170 78 365 109 514 195
922 201 948 5 22 5 22 -112 21 -65 -1 -128 -4 -140 -6z m32 -344 c-27 -133
-53 -232 -54 -212 -1 8 -19 1 -48 -16 -27 -16 -113 -66 -193 -111 -80 -45
-151 -89 -157 -98 -12 -14 -13 -13 -13 6 0 27 -2 27 -48 -2 -60 -38 -139 -75
-253 -121 -114 -46 -249 -88 -249 -77 0 8 27 123 41 175 5 20 14 37 20 37 16
0 964 542 968 554 3 8 6 7 8 0 2 -7 -8 -68 -22 -135z m-80 -386 c-28 -148 -66
-303 -75 -303 -9 0 -149 -77 -313 -171 -40 -23 -78 -49 -84 -57 -19 -23 -17
-7 12 139 42 205 58 264 75 264 8 0 69 31 135 69 66 38 150 87 188 108 37 21
67 44 68 51 0 9 2 9 5 0 3 -7 -2 -52 -11 -100z m-968 5 c-3 -8 -6 -5 -6 6 -1
11 2 17 5 13 3 -3 4 -12 1 -19z m858 -525 c-31 -163 -56 -260 -68 -260 -7 0
-46 -20 -87 -43 -41 -24 -100 -57 -130 -74 -31 -17 -84 -47 -118 -66 -34 -19
-62 -41 -63 -50 0 -10 -2 -11 -6 -3 -8 21 63 354 75 350 13 -4 394 216 399
230 14 36 13 -4 -2 -84z m-89 -430 c-26 -144 -49 -225 -66 -231 -29 -10 -295
-165 -298 -173 -2 -5 -26 -9 -54 -9 -42 0 -49 3 -45 18 3 9 17 69 32 133 17
77 30 116 39 116 21 0 377 206 390 225 18 29 18 13 2 -79z"/>
<path d="M1961 1454 c0 -11 3 -14 6 -6 3 7 2 16 -1 19 -3 4 -6 -2 -5 -13z"/>
</g>
</svg>
